<?xml version="1.0" standalone="no"?>
<!DOCTYPE svg PUBLIC "-//W3C//DTD SVG 20010904//EN"
 "http://www.w3.org/TR/2001/REC-SVG-20010904/DTD/svg10.dtd">
<svg version="1.0" xmlns="http://www.w3.org/2000/svg"
 width="340.000000pt" height="340.000000pt" viewBox="0 0 340.000000 340.000000"
 preserveAspectRatio="xMidYMid meet">
<metadata>
Created by potrace 1.11, written by Peter Selinger 2001-2013
</metadata>
<g transform="translate(0.000000,340.000000) scale(0.100000,-0.100000)"
fill="#000000" stroke="none">
<path d="M1605 2474 c-302 -29 -414 -47 -611 -99 -537 -140 -896 -413 -920
-699 l-5 -61 19 56 c66 195 310 385 648 502 219 76 482 109 713 89 436 -38
739 -194 783 -402 21 -103 -33 -213 -149 -305 -155 -122 -451 -227 -703 -249
-57 -5 -51 -3 45 18 291 63 509 186 581 328 62 123 8 256 -145 353 -55 34 -64
32 -19 -5 46 -38 88 -121 88 -175 0 -96 -84 -196 -228 -272 -435 -230 -1184
-167 -1349 114 -49 84 -34 171 45 263 47 55 14 39 -62 -31 -73 -66 -106 -123
-113 -193 -5 -49 -2 -64 25 -119 75 -153 227 -264 467 -342 513 -168 1257
-103 1680 148 113 66 221 171 260 252 43 86 47 182 12 259 -28 61 -108 152
-173 197 -47 32 -167 94 -222 114 -77 28 -10 13 94 -21 255 -85 442 -215 520
-365 26 -49 29 -63 29 -154 0 -90 -3 -106 -29 -159 -16 -33 -60 -91 -99 -133
-227 -239 -673 -401 -1222 -443 -113 -8 -108 -9 70 -5 639 13 1214 199 1495
484 126 127 176 241 168 377 -20 312 -447 573 -1078 659 -109 15 -525 28 -615
19z"/>
<path d="M1313 2070 c-47 -19 -58 -92 -20 -128 29 -28 67 -28 101 -1 67 53 -1
162 -81 129z"/>
<path d="M995 2053 c-57 -11 -101 -88 -84 -147 14 -51 61 -86 115 -86 39 0 51
5 80 34 28 28 34 42 34 76 0 56 -25 96 -72 115 -21 8 -42 14 -46 14 -4 -1 -16
-4 -27 -6z"/>
<path d="M1556 2021 c-32 -35 8 -91 54 -76 24 7 37 51 23 74 -15 24 -56 25
-77 2z"/>
<path d="M565 1957 c-78 -43 -108 -158 -58 -225 68 -91 177 -101 254 -23 130
129 -35 338 -196 248z"/>
</g>
</svg>
